<?xml version="1.0" standalone="no"?>
<!DOCTYPE svg PUBLIC "-//W3C//DTD SVG 20010904//EN"
 "http://www.w3.org/TR/2001/REC-SVG-20010904/DTD/svg10.dtd">
<svg version="1.0" xmlns="http://www.w3.org/2000/svg"
 width="300.000000pt" height="218.000000pt" viewBox="0 0 300.000000 218.000000"
 preserveAspectRatio="xMidYMid meet">
<metadata>
Created by potrace 1.10, written by Peter Selinger 2001-2011
</metadata>
<g transform="translate(0.000000,218.000000) scale(0.100000,-0.100000)"
fill="#000000" stroke="none">
<path d="M1220 1629 c-325 -32 -450 -59 -511 -111 l-34 -30 35 7 c19 4 91 17
160 30 178 34 430 53 467 35 27 -14 25 -14 -44 -20 -103 -9 -135 -45 -164
-187 -14 -69 -5 -93 36 -93 36 0 65 44 65 99 0 54 15 115 33 129 6 6 30 13 51
17 39 8 39 8 33 -21 -3 -16 -20 -117 -38 -224 -17 -107 -36 -212 -41 -232 -15
-64 -63 -78 -328 -98 -180 -13 -283 -2 -319 34 -25 26 -26 29 -25 159 0 73 3
147 7 165 3 17 3 32 -1 32 -15 0 -62 -293 -62 -382 0 -25 6 -29 57 -45 48 -15
94 -18 258 -18 281 1 437 31 450 88 3 12 14 87 25 167 17 115 74 430 92 499 1
7 -1 15 -7 16 -5 1 -93 -6 -195 -16z"/>
<path d="M1465 1590 c-34 -66 -107 -477 -104 -588 l1 -47 10 45 c43 199 101
411 125 458 26 54 30 57 63 56 19 -1 159 -50 310 -108 151 -59 358 -139 460
-179 102 -39 188 -76 192 -82 12 -17 9 -220 -3 -232 -13 -13 -4 -33 16 -33 18
0 21 254 3 289 -9 17 -47 38 -133 74 -66 28 -292 124 -503 214 -210 89 -391
163 -402 163 -12 0 -26 -12 -35 -30z m59 -37 c-20 -15 -34 -17 -34 -5 0 16 23
30 38 25 13 -5 12 -8 -4 -20z"/>
<path d="M900 1489 c-90 -15 -177 -34 -193 -40 -38 -16 -53 -49 -66 -144 -6
-44 -14 -93 -16 -110 -12 -66 13 -4 29 75 22 102 37 135 74 153 23 12 164 46
302 73 40 7 76 24 50 23 -8 0 -89 -14 -180 -30z"/>
<path d="M1552 1447 c-17 -20 -72 -147 -64 -147 4 0 24 27 44 60 33 53 41 60
69 60 17 0 184 -47 371 -106 187 -58 342 -103 344 -101 7 6 -708 247 -732 247
-12 0 -26 -6 -32 -13z"/>
<path d="M509 1356 c-26 -26 -63 -144 -53 -170 9 -23 50 -19 68 6 9 12 16 39
16 60 0 52 16 87 45 98 37 14 30 30 -14 30 -27 0 -45 -7 -62 -24z"/>
<path d="M1786 1218 c-7 -122 -2 -108 -93 -218 -40 -47 -39 -46 64 25 l57 40
318 -3 c224 -3 318 -1 318 7 0 7 -26 11 -67 11 -38 0 -92 3 -120 6 l-53 7 -1
61 c-1 71 -17 51 -18 -23 l-1 -43 -42 6 c-24 3 -104 11 -179 17 l-137 12 -6
36 c-3 20 -8 66 -12 104 -4 37 -10 67 -14 67 -4 0 -10 -50 -14 -112z"/>
<path d="M1682 1085 c-38 -30 -51 -34 -130 -40 -116 -8 -131 -12 -52 -14 36
-1 81 -4 101 -7 32 -6 40 -2 90 45 61 57 56 67 -9 16z"/>
<path d="M2130 1043 c19 -2 107 -7 194 -11 l159 -7 14 -35 13 -35 -5 35 c-3
19 -10 39 -15 44 -5 5 -96 10 -202 11 -106 1 -177 1 -158 -2z"/>
<path d="M1570 974 c0 -10 7 -14 22 -12 32 5 35 28 4 28 -17 0 -26 -5 -26 -16z"/>
<path d="M2433 925 c0 -38 2 -53 4 -32 2 20 2 52 0 70 -2 17 -4 1 -4 -38z"/>
<path d="M1957 886 c-7 -83 -5 -107 8 -94 3 3 5 45 3 94 l-3 89 -8 -89z"/>
<path d="M1406 812 c-8 -121 -5 -155 9 -140 3 3 4 66 3 139 l-3 134 -9 -133z"/>
<path d="M2175 890 c-9 -10 -20 -40 -22 -65 -3 -25 -7 -45 -8 -45 -1 0 -80
-16 -175 -35 -95 -19 -177 -35 -182 -35 -4 0 -8 17 -8 38 -1 56 -32 116 -69
131 -82 34 -161 -53 -161 -177 l0 -40 -52 -12 c-29 -6 -72 -14 -95 -17 -24 -3
-43 -11 -43 -18 0 -7 -11 -29 -25 -49 -31 -45 -31 -48 -2 -36 12 5 168 46 347
91 435 108 820 215 820 229 0 4 -44 -3 -97 -16 -54 -13 -103 -24 -109 -24 -6
0 -14 16 -17 36 -3 20 -11 42 -18 50 -17 20 -63 17 -84 -6z m75 -20 c24 -45
-11 -113 -41 -83 -16 16 -16 68 1 87 17 21 27 20 40 -4z m-526 -32 c35 -49 32
-137 -5 -176 -25 -28 -34 -28 -64 3 -21 20 -25 34 -25 80 0 55 12 93 34 107
20 14 45 8 60 -14z m-114 -168 c0 -11 -9 -24 -19 -29 -16 -9 -18 -8 -14 12 9
41 13 48 23 42 5 -3 10 -15 10 -25z"/>
<path d="M2214 856 c-7 -31 -2 -58 12 -63 14 -5 23 27 17 61 -7 33 -21 34 -29
2z"/>
<path d="M1659 819 c-19 -36 -13 -119 10 -142 17 -17 22 -18 35 -7 21 16 20
27 -1 33 -15 4 -16 5 -2 6 25 2 33 48 14 77 -8 13 -11 24 -6 24 6 0 8 7 5 15
-9 22 -42 18 -55 -6z"/>
<path d="M540 787 c0 -109 8 -139 53 -185 55 -57 73 -61 365 -68 297 -8 300
-7 347 55 13 19 24 36 22 37 -1 2 -23 -2 -47 -8 -29 -6 -146 -8 -328 -5 -246
5 -287 8 -320 24 -37 18 -62 63 -28 50 44 -17 267 -29 439 -24 208 5 227 11
245 69 10 33 22 148 15 148 -2 0 -58 -39 -126 -86 l-122 -85 -192 3 -192 3
-51 50 c-29 29 -50 58 -50 71 0 12 -7 27 -15 34 -13 11 -15 1 -15 -83z m725
-7 c0 -8 -8 -16 -17 -18 -13 -2 -18 3 -18 18 0 15 5 20 18 18 9 -2 17 -10 17
-18z m-47 -22 c28 -28 1 -75 -37 -63 -25 8 -34 31 -21 56 12 21 40 25 58 7z
m-603 -29 c0 -7 -8 -15 -17 -17 -18 -3 -25 18 -11 32 10 10 28 1 28 -15z"/>
<path d="M902 799 c-63 -4 -117 -10 -120 -14 -4 -4 38 -5 93 -1 55 3 124 6
153 6 28 0 52 5 52 10 0 11 -9 11 -178 -1z"/>
<path d="M845 760 l-150 -6 153 -2 c96 -1 152 2 152 8 0 6 -1 9 -2 8 -2 -1
-70 -5 -153 -8z"/>
</g>
</svg>
